<svg width="38" height="38" viewBox="0 0 38 38" fill="none" xmlns="http://www.w3.org/2000/svg">
<path d="M26.1875 21.875C25.8063 21.875 25.4406 22.0264 25.171 22.296C24.9015 22.5656 24.75 22.9313 24.75 23.3125C24.75 23.6937 24.9015 24.0594 25.171 24.329C25.4406 24.5986 25.8063 24.75 26.1875 24.75H30.5C30.8813 24.75 31.2469 24.5986 31.5165 24.329C31.7861 24.0594 31.9375 23.6937 31.9375 23.3125C31.9375 22.9313 31.7861 22.5656 31.5165 22.296C31.2469 22.0264 30.8813 21.875 30.5 21.875H26.1875ZM0.312503 4.625C0.312503 3.48125 0.766855 2.38435 1.57561 1.5756C2.38436 0.766852 3.48126 0.3125 4.625 0.3125H28.7031C29.9422 0.3125 31.1305 0.804714 32.0066 1.68086C32.8828 2.55701 33.375 3.74532 33.375 4.98438V6.4305C35.8878 7.31887 37.6875 9.71519 37.6875 12.5312V31.2188C37.6875 32.9344 37.006 34.5797 35.7929 35.7928C34.5797 37.006 32.9344 37.6875 31.2188 37.6875H6.78125C5.06563 37.6875 3.42028 37.006 2.20716 35.7928C0.99403 34.5797 0.312503 32.9344 0.312503 31.2188V4.98438H0.326878C0.317157 4.86483 0.312361 4.74494 0.312503 4.625ZM31.2188 8.9375H3.1875V31.2188C3.1875 32.1719 3.56613 33.086 4.24009 33.7599C4.91405 34.4339 5.82813 34.8125 6.78125 34.8125H31.2188C32.1719 34.8125 33.086 34.4339 33.7599 33.7599C34.4339 33.086 34.8125 32.1719 34.8125 31.2188V12.5312C34.8125 11.5781 34.4339 10.664 33.7599 9.99008C33.086 9.31613 32.1719 8.9375 31.2188 8.9375ZM30.5 4.98438C30.5 3.9925 29.695 3.1875 28.7031 3.1875H4.625C4.24375 3.1875 3.87812 3.33895 3.60854 3.60853C3.33895 3.87812 3.1875 4.24375 3.1875 4.625C3.1875 5.00625 3.33895 5.37188 3.60854 5.64147C3.87812 5.91105 4.24375 6.0625 4.625 6.0625H30.5V4.98438Z" fill="white"/>
</svg>
